<?xml version="1.0" encoding="UTF-8" standalone="no"?>
<svg
   xmlns:dc="http://purl.org/dc/elements/1.1/"
   xmlns:cc="http://creativecommons.org/ns#"
   xmlns:rdf="http://www.w3.org/1999/02/22-rdf-syntax-ns#"
   xmlns:svg="http://www.w3.org/2000/svg"
   xmlns="http://www.w3.org/2000/svg"
   xmlns:xlink="http://www.w3.org/1999/xlink"
   version="1.0"
   width="500"
   height="500"
   id="svg2">
  <metadata
     id="metadata12">
    <rdf:RDF>
      <cc:Work
         rdf:about="">
        <dc:format>image/svg+xml</dc:format>
        <dc:type
           rdf:resource="http://purl.org/dc/dcmitype/StillImage" />
        <dc:title></dc:title>
      </cc:Work>
    </rdf:RDF>
  </metadata>
  <defs
     id="defs10">
    <pattern
       patternTransform="matrix(254.70339,0,0,115.9322,-264.83051,-99.576272)"
       id="pattern5589-6"
       xlink:href="#Strips1_1-7" />
    <pattern
       patternUnits="userSpaceOnUse"
       width="2"
       height="1"
       patternTransform="translate(0,0) scale(10,10)"
       id="Strips1_1-7">
      <rect
         style="fill:black;stroke:none"
         x="0"
         y="-0.5"
         width="1"
         height="2"
         id="rect4868-5" />
    </pattern>
    <pattern
       patternTransform="matrix(254.70339,0,0,115.9322,-264.83051,-99.576272)"
       id="pattern5589-6-809"
       xlink:href="#Strips1_1-7-383" />
    <pattern
       patternUnits="userSpaceOnUse"
       width="2"
       height="1"
       patternTransform="translate(0,0) scale(10,10)"
       id="Strips1_1-7-383">
      <rect
         style="fill:#2f5da6;stroke:none"
         x="0"
         y="-0.5"
         width="1"
         height="2"
         id="rect5662" />
    </pattern>
    <pattern
       patternTransform="matrix(-265.29659,0,0,-115.93223,-266.94915,-103.81355)"
       id="pattern5589-6-809-299-5"
       xlink:href="#Strips1_1-7-383-815-6" />
    <pattern
       patternUnits="userSpaceOnUse"
       width="2"
       height="1"
       patternTransform="translate(0,0) scale(10,10)"
       id="Strips1_1-7-383-815-6">
      <rect
         style="fill:#2f5da6;stroke:none"
         x="0"
         y="-0.5"
         width="1"
         height="2"
         id="rect5848-2" />
    </pattern>
  </defs>
  <path
     style="fill:#008150;fill-opacity:1;stroke:none;stroke-width:22"
     d="M 243.64453 13.119141 A 239 239 0 0 0 4.6445312 252.11914 A 239 239 0 0 0 243.64453 491.11914 A 239 239 0 0 0 250 490.89453 L 250 13.4375 A 239 239 0 0 0 243.64453 13.119141 z "
     id="circle4-3-9" />
  <path
     style="fill:#2f5da6;fill-opacity:1;stroke:none;stroke-width:22"
     d="m 250,10.999999 0,474.169921 42.19531,0 A 239,239 0 0 0 489,250 239,239 0 0 0 250,10.999999 Z"
     id="circle4-3" />
  <path
     style="fill:#ffffff"
     id="path6"
     d="M85,127.5h330v76.25h-122.5v204h-84.5v-204h-122.5z" />
  <circle
     cx="250"
     cy="250"
     r="239"
     style="fill:#008150;fill-opacity:0;stroke:#000000;stroke-width:22"
     id="circle4" />
</svg>
