<?xml version="1.0" encoding="UTF-8" standalone="no"?>
<svg
   xmlns:dc="http://purl.org/dc/elements/1.1/"
   xmlns:cc="http://creativecommons.org/ns#"
   xmlns:rdf="http://www.w3.org/1999/02/22-rdf-syntax-ns#"
   xmlns:svg="http://www.w3.org/2000/svg"
   xmlns="http://www.w3.org/2000/svg"
   xmlns:xlink="http://www.w3.org/1999/xlink"
   id="svg2"
   height="500"
   width="500"
   version="1.0">
  <metadata
     id="metadata12">
    <rdf:RDF>
      <cc:Work
         rdf:about="">
        <dc:format>image/svg+xml</dc:format>
        <dc:type
           rdf:resource="http://purl.org/dc/dcmitype/StillImage" />
        <dc:title></dc:title>
      </cc:Work>
    </rdf:RDF>
  </metadata>
  <defs
     id="defs10">
    <pattern
       xlink:href="#Strips1_1-7"
       id="pattern5589-6"
       patternTransform="matrix(254.70339,0,0,115.9322,-264.83051,-99.576272)" />
    <pattern
       id="Strips1_1-7"
       patternTransform="translate(0,0) scale(10,10)"
       height="1"
       width="2"
       patternUnits="userSpaceOnUse">
      <rect
         id="rect4868-5"
         height="2"
         width="1"
         y="-0.5"
         x="0"
         style="fill:black;stroke:none" />
    </pattern>
    <pattern
       xlink:href="#Strips1_1-7-383"
       id="pattern5589-6-809"
       patternTransform="matrix(254.70339,0,0,115.9322,-264.83051,-99.576272)" />
    <pattern
       id="Strips1_1-7-383"
       patternTransform="translate(0,0) scale(10,10)"
       height="1"
       width="2"
       patternUnits="userSpaceOnUse">
      <rect
         id="rect5662"
         height="2"
         width="1"
         y="-0.5"
         x="0"
         style="fill:#2f5da6;stroke:none" />
    </pattern>
    <pattern
       xlink:href="#Strips1_1-7-383-815-6"
       id="pattern5589-6-809-299-5"
       patternTransform="matrix(-265.29659,0,0,-115.93223,-266.94915,-103.81355)" />
    <pattern
       id="Strips1_1-7-383-815-6"
       patternTransform="translate(0,0) scale(10,10)"
       height="1"
       width="2"
       patternUnits="userSpaceOnUse">
      <rect
         id="rect5848-2"
         height="2"
         width="1"
         y="-0.5"
         x="0"
         style="fill:#2f5da6;stroke:none" />
    </pattern>
  </defs>
  <path
     id="circle4-3-9"
     d="M 243.64453 13.119141 A 239 239 0 0 0 4.6445312 252.11914 A 239 239 0 0 0 243.64453 491.11914 A 239 239 0 0 0 250 490.89453 L 250 13.4375 A 239 239 0 0 0 243.64453 13.119141 z "
     style="fill:#fa2d27;fill-opacity:1;stroke:none;stroke-width:22" />
  <path
     id="circle4-3"
     d="m 250,10.999999 0,474.169921 42.19531,0 A 239,239 0 0 0 489,250 239,239 0 0 0 250,10.999999 Z"
     style="fill:#fd8a03;fill-opacity:1;stroke:none;stroke-width:22" />
  <path
     d="M85,127.5h330v76.25h-122.5v204h-84.5v-204h-122.5z"
     id="path6"
     style="fill:#ffffff" />
  <circle
     id="circle4"
     style="fill:#008150;fill-opacity:0;stroke:#000000;stroke-width:22"
     r="239"
     cy="250"
     cx="250" />
</svg>
